<?xml version="1.0" encoding="utf-8"?>
<!-- Generator: Adobe Illustrator 23.0.3, SVG Export Plug-In . SVG Version: 6.00 Build 0)  -->
<svg version="1.1" id="Layer_1" xmlns="http://www.w3.org/2000/svg" xmlns:xlink="http://www.w3.org/1999/xlink" x="0px" y="0px"
	 viewBox="0 0 74 75" style="enable-background:new 0 0 74 75;" xml:space="preserve">
<g>
	<path d="M36.8,18.1c-10.4,0-18.9,8.5-18.9,19.1s8.4,19.1,18.9,19.1c10.4,0,18.9-8.5,18.9-19.1C55.6,26.7,47.2,18.1,36.8,18.1z
		 M36.8,49.6c-6.7,0-12.3-5.6-12.3-12.4S30,24.8,36.8,24.8s12.3,5.6,12.3,12.4S43.5,49.6,36.8,49.6z M60.8,17.4c0,2.5-2,4.5-4.4,4.5
		s-4.4-2-4.4-4.5s2-4.5,4.4-4.5S60.8,14.9,60.8,17.4z M73.3,21.9c-0.3-6-1.6-11.2-5.9-15.6s-9.5-5.7-15.4-6C45.9,0,27.7,0,21.7,0.3
		c-5.9,0.3-11.1,1.6-15.4,6s-5.6,9.6-5.9,15.6c-0.3,6.1-0.3,24.6,0,30.7c0.3,6,1.6,11.2,5.9,15.6s9.5,5.7,15.4,6
		c6.1,0.3,24.3,0.3,30.3,0c5.9-0.3,11.1-1.6,15.4-6s5.6-9.6,5.9-15.6C73.7,46.4,73.7,28,73.3,21.9z M65.5,59.2
		c-1.3,3.3-3.8,5.8-7,7.1c-4.8,1.9-16.3,1.5-21.7,1.5s-16.9,0.4-21.7-1.5c-3.2-1.3-5.7-3.8-7-7.1c-1.9-4.9-1.5-16.5-1.5-21.9
		s-0.4-17.1,1.5-22c1.3-3.3,3.8-5.8,7-7.1C20,6.3,31.4,6.7,36.8,6.7s16.9-0.4,21.7,1.5c3.2,1.3,5.7,3.8,7,7.1
		c1.9,4.9,1.5,16.5,1.5,21.9S67.4,54.3,65.5,59.2z"/>
</g>
</svg>
