<?xml version="1.0" encoding="utf-8"?>
<!-- Generator: Adobe Illustrator 23.0.3, SVG Export Plug-In . SVG Version: 6.00 Build 0)  -->
<svg version="1.1" xmlns="http://www.w3.org/2000/svg" xmlns:xlink="http://www.w3.org/1999/xlink" x="0px" y="0px"
	 viewBox="0 0 423.4 155.7" style="enable-background:new 0 0 423.4 155.7;" xml:space="preserve">
<style type="text/css">
	.st0{fill:#FFFFFF;}
	.st1{display:none;}
	.st2{display:inline;fill:#FFFFFF;}
	.st3{display:inline;}
	.st4{display:none;fill:#FFFFFF;}
</style>
<g id="Layer_2">
</g>
<g id="Layer_1">
	<g>
		<g>
			<path class="st0" d="M175.7,71.5h-26.8l-2.4-6.7h-22.4l-2.4,6.7H94.8l25.6-60.2H150L175.7,71.5z M150.4,69.3h22l-23.8-55.8h-26.7
				L98.1,69.3h22l2.4-6.7H148L150.4,69.3z M143.7,50.7h-16.9l7.6-21.9h1.7L143.7,50.7z M129.9,48.5h10.7l-5.4-15.5L129.9,48.5z"/>
		</g>
		<g>
			<path class="st0" d="M210.3,73.6c-7.2,0-17.6-0.4-25.5-3.4c-8.4-3.3-12.6-9-12.6-17.2v-1.1H202l0,1.1c0,1.5,0.6,2.5,1.8,3.2
				c1.5,0.7,4,1.1,7.3,1.1c8,0,8-2.4,8-3.6c0-0.6,0-2.3-3.3-2.8l-26.1-3.9c-10.8-1.6-16.8-7.8-16.8-17.4c0-7.4,3.5-12.9,10.3-16.2
				c5.6-2.7,13.6-4,24.3-4c25.2,0,37.4,6.4,38.4,20l0.1,1.2h-28.9v-1.1c0-1.7-0.8-2.8-2.8-3.6c-1.7-0.7-4-1.1-6.7-1.1
				c-5.3,0-8.1,1-8.1,3.1c0,1,0.1,1.7,2.1,1.9l27.4,4.1c12.8,1.9,19.6,8.1,19.6,18C248.6,66.6,236.4,73.6,210.3,73.6z M174.4,54.1
				c0.8,15.3,19.5,17.3,35.8,17.3c25,0,36.2-6.1,36.2-19.7c0-8.8-6-14.1-17.8-15.8l-27.4-4.1c-2.7-0.4-4-1.7-4-4.1
				c0-5.3,7.7-5.3,10.3-5.3c2.1,0,5.1,0.2,7.6,1.3c2.4,1,3.7,2.4,4.1,4.5h24.4c-1.5-11.5-13-16.8-36.1-16.8
				c-22.1,0-32.5,5.7-32.5,18c0,8.5,5.2,13.8,14.9,15.3h0l26.2,3.9c4.4,0.8,5.1,3.4,5.1,5c0,5.2-5.5,5.8-10.2,5.8
				c-3.7,0-6.4-0.4-8.3-1.3l-0.1,0c-1.6-1-2.5-2.3-2.8-4H174.4z"/>
		</g>
		<g>
			<path class="st0" d="M327.8,71.5h-25.1V48.4h-23.6v23.1H254V11.3h25.1v20.2h23.6V11.3h25.1V71.5z M304.8,69.3h20.7V13.5h-20.7
				v20.2h-28V13.5h-20.7v55.8h20.7V46.2h28V69.3z"/>
		</g>
		<g>
			<path class="st0" d="M55.4,150.3c-12.2,0-40.7,0-40.7-32.1c0-13.5,5.1-22.8,15.2-27.8c7.8-3.8,16.9-4.4,25.5-4.4
				c9.8,0,36,0,39.2,25.7l0.2,1.2h-28l-0.1-0.9c-0.5-3.4-2.7-9.2-11.2-9.2c-9.6,0-14.2,5-14.2,15.3c0,10.2,4.4,15.3,13,15.3
				c6.9,0,10.6-2.7,12.4-9.2l0.2-0.8h28l-0.3,1.3c-1.3,6.5-3.5,13.8-10.2,18.7C78.3,148.1,69.1,150.3,55.4,150.3z M55.4,88.2
				c-11.5,0-38.5,0-38.5,29.9c0,26.4,19.5,29.9,38.5,29.9c13,0,22-2.1,27.7-6.4c4.7-3.4,7.3-8.1,9.1-16.1H68.5
				c-2.1,6.8-6.7,10-14.3,10c-7,0-15.2-3-15.2-17.5c0-11.6,5.5-17.5,16.4-17.5c9.6,0,12.4,6.5,13.2,10.1h23.7
				C89,90.8,70.9,88.2,55.4,88.2z"/>
		</g>
		<g>
			<path class="st0" d="M174.3,148.3h-25.1v-23.1h-23.6v23.1h-25.1V88.1h25.1v20.2h23.6V88.1h25.1V148.3z M151.4,146.1h20.7V90.3
				h-20.7v20.2h-28V90.3h-20.7v55.8h20.7v-23.1h28V146.1z"/>
		</g>
		<g>
			<path class="st0" d="M255.4,148.3h-26.8l-2.4-6.7h-22.4l-2.4,6.7h-26.8l25.6-60.2h29.6L255.4,148.3z M230.1,146.1h22l-23.8-55.8
				h-26.7l-23.7,55.8h22l2.4-6.7h25.4L230.1,146.1z M223.4,127.5h-16.9l7.6-21.9h1.7L223.4,127.5z M209.6,125.3h10.7l-5.4-15.5
				L209.6,125.3z"/>
		</g>
		<g>
			<path class="st0" d="M329.3,148.3h-26.8l-22.9-30.5v30.5h-24.1V88.1h27.9l21.8,30.2V88.1h24.1V148.3z M303.6,146.1h23.5V90.3
				h-19.7v32.2h-1.9l-23.2-32.2h-24.6v55.8h19.7v-32.5h1.8L303.6,146.1z"/>
		</g>
		<g>
			<path class="st0" d="M374.3,150.3c-25.9,0-39-10.7-39-31.9c0-28.2,24.4-32.4,39-32.4c25.9,0,38.7,7.3,40.5,22.9l0.1,1.2H387
				l-0.2-0.9c-0.5-2.5-1.8-4.2-3.9-5.2c-1.9-0.9-4.1-1.3-7.3-1.3c-9.6,0-14.2,5-14.2,15.3s5.2,15.3,16,15.3c5.6,0,9.3-1.7,11.1-5.1
				h-8.8V113h34.8v35.3h-11.6l-2.3-4.6C394.6,148.4,387.1,150.3,374.3,150.3z M374.3,88.2c-16.8,0-36.8,5.2-36.8,30.2
				c0,11.5,4.2,19.7,12.4,24.5c6,3.5,14,5.2,24.4,5.2c12.9,0,20.2-2,25.9-7l1.1-1l2.9,5.9h8v-30.9h-30.4v10.9h9.9l-0.5,1.5
				c-1.9,5.3-6.6,8-13.9,8c-11.9,0-18.1-6-18.1-17.5c0-11.6,5.5-17.5,16.4-17.5c3.6,0,6.1,0.5,8.3,1.5c2.4,1.1,4.1,3.1,4.9,5.8h23.7
				C410.3,94.3,398.4,88.2,374.3,88.2z"/>
		</g>
	</g>
	<g class="st1">
		<path class="st2" d="M92.2,179.9h34.2l3.7,10.2h41l-39.2-92H86.6l-39.1,92h41L92.2,179.9z M52.6,186.8l36.3-85.3h40.8l36.4,85.3
			h-33.6l-3.7-10.2H89.8l-3.7,10.2H52.6z"/>
		<path class="st2" d="M110.6,124.9h-2.6l-11.6,33.4h25.8L110.6,124.9z M109.2,131.3l8.2,23.7h-16.4L109.2,131.3z"/>
		<path class="st2" d="M185,188.1c12,4.7,28,5.2,38.9,5.2c40,0,58.7-10.6,58.7-33.4c0-15.1-10.4-24.6-30-27.5l-41.8-6.2
			c-2.9-0.4-3.2-1.5-3.2-3c0-3.1,4.1-4.7,12.3-4.7c4.1,0,7.6,0.6,10.3,1.7c3,1.2,4.3,2.8,4.3,5.5v1.7h44.2l-0.1-1.8
			c-1.5-20.9-20.1-30.6-58.7-30.6c-16.4,0-28.6,2-37.2,6.1c-10.5,5-15.8,13.3-15.8,24.7c0,14.7,9.1,24.1,25.7,26.6l40,6
			c5,0.9,5,3.4,5,4.3c0,1.8,0,5.5-12.2,5.5c-5.1,0-8.8-0.6-11.1-1.6c-1.9-1.2-2.7-2.7-2.8-4.9l0-1.6h-45.6v1.7
			C165.8,174.3,172.3,183.1,185,188.1z M208.2,163.5c0.5,2.6,1.9,4.7,4.3,6.1l0.1,0.1c2.8,1.4,6.9,2,12.6,2c7.3,0,15.6-1,15.6-8.9
			c0-2.3-1-6.4-7.8-7.6l-40-6h0c-14.9-2.2-22.8-10.3-22.8-23.3c0-18.8,15.8-27.5,49.6-27.5c35.2,0,52.8,8.2,55.1,25.7h-37.3
			c-0.5-3.2-2.6-5.4-6.2-6.9c-3.8-1.6-8.4-2-11.6-2c-3.9,0-15.7,0-15.7,8c0,3.6,2,5.7,6,6.3l41.8,6.2c18,2.6,27.2,10.8,27.2,24.2
			c0,20.8-17.1,30.1-55.3,30.1c-24.9,0-53.5-3.1-54.8-26.5H208.2z"/>
		<path class="st2" d="M329.2,154.8h36v35.4h38.4v-92h-38.4V129h-36V98.1h-38.4v92h38.4V154.8z M325.8,186.8h-31.7v-85.3h31.7v30.9
			h42.8v-30.9h31.7v85.3h-31.7v-35.4h-42.8V186.8z"/>
		<path class="st2" d="M4.4,270.8c-2.7,9.8-8.3,14-18.9,14c-13.2,0-20-7.9-20-23.4c0-15.7,7.1-23.4,21.7-23.4
			c13,0,16.3,8.8,17.1,14.1l0.2,1.4h42.8l-0.2-1.9c-5-39.4-44.9-39.4-59.9-39.4c-13.2,0-27,0.8-39,6.7
			c-15.5,7.6-23.3,21.8-23.3,42.5c0,49.1,43.6,49.1,62.3,49.1c20.9,0,35-3.3,44.3-10.4c10.2-7.5,13.6-18.7,15.6-28.6l0.4-2H4.7
			L4.4,270.8z M43.4,273c-2.7,12.2-6.8,19.3-13.9,24.6c-8.7,6.5-22.5,9.7-42.3,9.7c-29.1,0-58.9-5.4-58.9-45.8
			c0-45.8,41.3-45.8,58.9-45.8c23.7,0,51.4,4,56.3,34.5H7.4c-1.2-5.6-5.5-15.5-20.2-15.5c-16.6,0-25.1,9-25.1,26.7
			c0,22.1,12.7,26.7,23.3,26.7c11.6,0,18.6-4.9,21.8-15.3H43.4z"/>
		<path class="st2" d="M130.7,246.4h-36v-30.9H56.2v92h38.4v-35.4h36v35.4h38.4v-92h-38.4V246.4z M134,218.8h31.7v85.3H134v-35.4
			H91.3v35.4H59.6v-85.3h31.7v30.9H134V218.8z"/>
		<rect x="-117" y="51.6" class="st0" width="683" height="209.9"/>
		<polygon class="st2" points="235.6,261.5 239.4,272.4 223,272.4 226.7,261.5 223.2,261.5 218.3,275.7 244.1,275.7 239.1,261.5 		
			"/>
		<polygon class="st2" points="269.7,261.5 287.9,304.1 254.3,304.1 250.6,293.9 211.7,293.9 208,304.1 174.4,304.1 192.6,261.5 
			188.9,261.5 169.4,307.5 210.4,307.5 214.1,297.3 248.3,297.3 252,307.5 293,307.5 273.3,261.5 		"/>
		<g class="st3">
			<polygon class="st0" points="402.6,270.5 402.6,304.1 366.7,304.1 341.4,270.5 337.3,270.5 365,307.5 405.9,307.5 405.9,270.5 
							"/>
			<polygon class="st0" points="326.6,270.5 326.6,304.1 296.5,304.1 296.5,270.5 293.1,270.5 293.1,307.5 330,307.5 330,270.5 			
				"/>
		</g>
		<g class="st3">
			<path class="st0" d="M482.9,261.5V277h13.5c-2.9,5.2-8.5,7.8-17,7.8c-16.4,0-24.4-7.6-24.4-23.3h-3.4c0,17.4,9.6,26.7,27.7,26.7
				c11.2,0,18.3-4.1,21.2-12.3l0.8-2.2h-15.1v-12.2H482.9z"/>
			<path class="st0" d="M532.7,261.5v42.7h-12.3L516,295l-1.6,1.5c-8.7,7.7-19.8,10.7-39.5,10.7c-15.9,0-28.2-2.6-37.4-8
				c-12.6-7.3-19-19.9-19-37.5c0-0.1,0-0.2,0-0.3h-3.4c0,0.1,0,0.2,0,0.3c0,32.4,20.1,48.8,59.7,48.8c19.5,0,31-2.9,40.1-10.2
				l3.5,7.1H536v-46H532.7z"/>
		</g>
	</g>
	<rect x="-117" y="51.6" class="st4" width="683" height="209.9"/>
</g>
</svg>
