<?xml version="1.0" encoding="utf-8"?>
<!-- Generator: Adobe Illustrator 23.0.3, SVG Export Plug-In . SVG Version: 6.00 Build 0)  -->
<svg version="1.1" id="Layer_1" xmlns="http://www.w3.org/2000/svg" xmlns:xlink="http://www.w3.org/1999/xlink" x="0px" y="0px"
	 viewBox="0 0 511 77" style="enable-background:new 0 0 511 77;" xml:space="preserve">
<style type="text/css">
	.st0{fill:#FFFFFF;}
</style>
<g>
	<path class="st0" d="M27.3,18.2H48L66.3,61h-18l-1.8-4.9H28.8L27,61H9L27.3,18.2z M37.7,31.1L37.7,31.1l-5.1,14.5h10.2L37.7,31.1z"
		/>
	<path class="st0" d="M78,42.8c-8.3-1.3-11.7-6.1-11.7-12.1c0-11.1,10.9-14.1,24.8-14.1c19.1,0,26.9,5,27.5,14H99
		c0-1.7-1-2.8-2.6-3.4c-1.5-0.7-3.4-0.9-5.3-0.9c-5,0-6.8,1.2-6.8,3.1c0,1.2,0.5,2,2.2,2.2l20.2,3c8.6,1.3,13.8,5.2,13.8,12.5
		c0,10.5-8.5,15.4-27.5,15.4c-13,0-27.3-1.8-27.3-14.4h20.4c0.1,1.4,0.7,2.4,1.8,3.1c1.3,0.6,3.2,0.9,5.8,0.9c5.3,0,6.7-1.4,6.7-3.5
		c0-1.3-0.7-2.5-3.1-2.9L78,42.8z"/>
	<path class="st0" d="M162.1,43.9h-19V61h-16.9V18.2h16.9v14.9h19V18.2H179V61h-16.9V43.9z"/>
	<path class="st0" d="M266.9,44.3c-1.1,5.7-2.9,10.2-7.2,13.3c-4.1,3.1-10.6,4.9-20.9,4.9c-10.3,0-29.3-0.7-29.3-22.9
		s19-22.9,29.3-22.9c10.1,0,26,1.3,28.1,18.3h-19.1c-0.5-3.1-2.5-7.5-9.1-7.5c-7,0-11.3,3.4-11.3,12.1s4.2,12.1,10.4,12.1
		c5.3,0,8.5-2.2,9.9-7.4C247.7,44.3,266.9,44.3,266.9,44.3z"/>
	<path class="st0" d="M308.8,43.9h-19V61h-16.9V18.2h16.9v14.9h19V18.2h16.9V61h-16.9V43.9z"/>
	<path class="st0" d="M346.2,18.2H367L385.2,61h-18l-1.8-4.9h-17.6L346,61h-18L346.2,18.2z M356.6,31.1h-0.1l-5,14.5h10.2
		L356.6,31.1z"/>
	<path class="st0" d="M387.3,18.2h19.3L423.8,42h0.2V18.2h16.2V61h-18.5l-18-24h-0.1v24h-16.2V18.2H387.3z"/>
	<path class="st0" d="M478.9,36.6H503V61h-7.3l-1.9-3.9c-4.4,3.9-9.8,5.4-19.6,5.4c-11.9,0-28-2.9-28-22.7c0-18.8,15-23.1,28-23.1
		c18.8,0,27.8,5.2,29.1,16.2h-19.1c-0.5-2.2-1.7-3.6-3.3-4.4c-1.6-0.8-3.5-1-5.8-1c-7,0-11.3,3.4-11.3,12.1c0,8,4.1,12.1,12.6,12.1
		c5.5,0,8.3-2.1,9.5-5.4h-7L478.9,36.6L478.9,36.6z"/>
</g>
</svg>
