<?xml version="1.0" encoding="utf-8"?>
<!-- Generator: Adobe Illustrator 23.0.3, SVG Export Plug-In . SVG Version: 6.00 Build 0)  -->
<svg version="1.1" id="Layer_1" xmlns="http://www.w3.org/2000/svg" xmlns:xlink="http://www.w3.org/1999/xlink" x="0px" y="0px"
	 viewBox="0 0 266 280" style="enable-background:new 0 0 266 280;" xml:space="preserve">
<style type="text/css">
	.st0{fill:#CBCACA;}
</style>
<g>
	<path class="st0" d="M185.42,183.43c-6.74,0-16.54-3.66-28.67-10.81c-17.86-10.53-38.74-27.37-58.79-47.43S61.05,84.26,50.53,66.4
		C39.9,48.37,36.99,35.49,42.34,30.14c5.35-5.35,18.23-2.44,36.26,8.19c17.86,10.53,38.74,27.37,58.79,47.43
		c20.06,20.06,36.9,40.94,47.43,58.79c10.63,18.04,13.54,30.92,8.19,36.26l0,0l0,0C191.26,182.56,188.7,183.43,185.42,183.43z
		 M49.9,28.54c-2.99,0-5.31,0.76-6.86,2.31c-4.92,4.92-1.88,17.7,8.34,35.05c10.48,17.79,27.27,38.59,47.27,58.59
		c34.79,34.79,70.21,58,86.65,58.01c3,0,5.37-0.77,6.99-2.39l0,0c4.92-4.92,1.88-17.7-8.34-35.05
		c-10.48-17.79-27.27-38.6-47.27-58.6s-40.81-36.79-58.6-47.27C66.19,32.17,56.44,28.54,49.9,28.54z"/>
</g>
<circle class="st0" cx="173.65" cy="127.72" r="13.41"/>
<g>
	<path class="st0" d="M58.29,233.77c0-6.74,3.66-16.54,10.81-28.67c10.53-17.86,27.37-38.74,47.43-58.79s40.94-36.9,58.79-47.43
		c18.04-10.63,30.92-13.54,36.27-8.19c5.35,5.35,2.44,18.23-8.19,36.26c-10.53,17.86-27.37,38.74-47.43,58.79
		c-20.06,20.06-40.94,36.9-58.79,47.43c-18.04,10.63-30.92,13.54-36.26,8.19l0,0l0,0C59.16,239.61,58.29,237.05,58.29,233.77z
		 M213.19,98.25c0-2.99-0.76-5.31-2.31-6.86c-4.92-4.92-17.7-1.88-35.05,8.34c-17.79,10.48-38.59,27.27-58.59,47.27
		c-34.79,34.79-58,70.21-58.01,86.65c0,3,0.77,5.37,2.39,6.99l0,0c4.92,4.92,17.7,1.88,35.05-8.34
		c17.79-10.48,38.6-27.27,58.6-47.27s36.79-40.81,47.27-58.6C209.55,114.54,213.19,104.79,213.19,98.25z"/>
</g>
<g>
	<path class="st0" d="M58.29,202.63c0-6.74,3.66-16.54,10.81-28.67c10.53-17.86,27.37-38.74,47.43-58.79s40.94-36.9,58.79-47.43
		c18.04-10.63,30.92-13.54,36.27-8.19c5.35,5.35,2.44,18.23-8.19,36.26c-10.53,17.86-27.37,38.74-47.43,58.79
		c-20.06,20.06-40.94,36.9-58.79,47.43c-18.04,10.63-30.92,13.54-36.26,8.19l0,0l0,0C59.16,208.47,58.29,205.91,58.29,202.63z
		 M213.19,67.11c0-2.99-0.76-5.31-2.31-6.86c-4.92-4.92-17.7-1.88-35.05,8.34c-17.79,10.48-38.59,27.27-58.59,47.27
		c-34.79,34.79-58,70.21-58.01,86.65c0,3,0.77,5.37,2.39,6.99l0,0c4.92,4.92,17.7,1.88,35.05-8.34
		c17.79-10.48,38.6-27.27,58.6-47.27s36.79-40.81,47.27-58.6C209.55,83.4,213.19,73.65,213.19,67.11z"/>
</g>
<circle class="st0" cx="114" cy="222" r="13.41"/>
</svg>
